<?xml version="1.0" encoding="UTF-8"?>
<svg xmlns="http://www.w3.org/2000/svg" id="Icons" viewBox="0 0 60 60" width="512" height="512"><path d="M7.963,34H23.445a3.009,3.009,0,0,0,2.906-3.77,10.812,10.812,0,0,0-5.884-7.1s0-.007.014-.02a6.947,6.947,0,0,0,2.158-6.077A7,7,0,0,0,8.7,18a6.721,6.721,0,0,0,2.268,5.079,10.968,10.968,0,0,0-5.915,7.15A3.009,3.009,0,0,0,7.963,34Zm-.971-3.267a8.975,8.975,0,0,1,4.841-5.849,1.978,1.978,0,0,0,1.105-1.5,1.916,1.916,0,0,0-.6-1.7,4.992,4.992,0,0,1,.041-7.421A4.94,4.94,0,0,1,15.7,13a5.546,5.546,0,0,1,.6.034A5.026,5.026,0,0,1,20.656,17.3a4.961,4.961,0,0,1-1.54,4.346,2.027,2.027,0,0,0-.627,1.784,1.942,1.942,0,0,0,1.086,1.454,8.972,8.972,0,0,1,4.84,5.849,1.009,1.009,0,0,1-.179.878.993.993,0,0,1-.791.389H7.963a.993.993,0,0,1-.792-.39A1.01,1.01,0,0,1,6.992,30.733Z"/><path d="M30,19H43a1,1,0,0,0,0-2H30a1,1,0,0,0,0,2Z"/><path d="M30,24H50a1,1,0,0,0,0-2H30a1,1,0,0,0,0,2Z"/><path d="M30,29H50a1,1,0,0,0,0-2H30a1,1,0,0,0,0,2Z"/><path d="M57,20H56V8a3,3,0,0,0-3-3H3A3,3,0,0,0,0,8V37a3,3,0,0,0,3,3H4V52a3,3,0,0,0,3,3H57a3,3,0,0,0,3-3V23A3,3,0,0,0,57,20ZM2,37V8A1,1,0,0,1,3,7H53a1,1,0,0,1,1,1V37a1,1,0,0,1-1,1H3A1,1,0,0,1,2,37Zm26.412,8.732a1.008,1.008,0,0,1-.18.879A.994.994,0,0,1,27.44,47H11.96a.993.993,0,0,1-.79-.392,1.006,1.006,0,0,1-.183-.874A9,9,0,0,1,15.614,40H23.8A8.954,8.954,0,0,1,28.412,45.732ZM58,52a1,1,0,0,1-1,1H7a1,1,0,0,1-1-1V40h6.173a10.977,10.977,0,0,0-3.121,5.229A3.014,3.014,0,0,0,11.96,49H27.44a3.01,3.01,0,0,0,2.908-3.771A10.922,10.922,0,0,0,27.237,40H53a3,3,0,0,0,3-3V22h1a1,1,0,0,1,1,1Z"/><path d="M54,42H34a1,1,0,0,0,0,2H54a1,1,0,0,0,0-2Z"/></svg>
